<svg width="105" height="27" viewBox="0 0 105 27" fill="none" xmlns="http://www.w3.org/2000/svg">
<path d="M0.500002 18.1743L40.1804 17.1848C40.8463 19.1661 42.7767 22.0491 44.9672 21.9911C46.7995 21.9425 48.3251 20.8719 49.0235 19.3468C50.4813 23.075 55 23 59.5 23.5C68 25 95.5931 20.0912 104 26.4999C104.492 24.7869 103.611 24.2897 104 21.9911C101.182 18.5221 72.3021 17.825 67.5 18C71.1823 15.9696 97.2137 16.3716 101.5 18.1743C101.654 16.3396 97.9996 16.4312 97 14.5C96.0004 12.5688 71.9997 13 98.5 12C98.3843 9.19856 100.727 9.56607 100 6.49985C96.3202 8.76302 74.9372 10.3143 70.5 8.5C75.1634 8.52555 96.3429 8.61945 99.0003 4.49985C98.2245 1.51297 98.8954 2.23186 98 3.55303e-08C91.4137 4.38859 66.5 1.5 57.5 2.5C55.5 2.72222 49.5391 4.25148 48.3763 8.35877C47.501 6.85637 45.84 5.85396 43.9936 5.90293C41.803 5.96103 40.3224 9.23281 39.898 11.2431L2.99994 13.1744L0.500002 18.1743Z" fill="#D1B99E"/>
</svg>
