<svg width="43" height="144" viewBox="0 0 43 144" fill="none" xmlns="http://www.w3.org/2000/svg">
<path d="M42.1036 0.277908L42.1394 22.8716L32.6081 22.8867L32.5978 16.3555L0.410336 16.4065L0.395132 6.81277L32.5826 6.76175L32.5723 0.293013L42.1036 0.277908ZM42.1487 28.7779L42.1637 38.2466L26.695 38.2711L26.7083 46.6774L42.1771 46.6528L42.1921 56.1216L0.473383 56.1877L0.458377 46.719L17.8021 46.6915L17.7888 38.2852L0.445054 38.3127L0.430048 28.844L42.1487 28.7779ZM42.2063 65.0903L42.2367 84.2465L33.3617 84.2606L33.3463 74.5731L25.6588 74.5853L25.6721 82.9915L17.0159 83.0053L17.0026 74.599L9.40884 74.6111L9.42429 84.361L0.518055 84.3752L0.487597 65.1564L42.2063 65.0903ZM42.2486 91.7778L42.2661 102.809C42.2731 107.267 41.1329 110.79 38.8453 113.377C36.5577 115.964 33.4452 117.261 29.5077 117.267C27.4869 117.27 25.5278 116.783 23.6304 115.807C21.7538 114.831 20.3349 113.406 19.3736 111.533L0.573128 119.125L0.557279 109.125L19.5451 101.439L19.5449 101.283L0.544898 101.313L0.529892 91.8439L42.2486 91.7778ZM34.2011 101.259L24.2949 101.275C24.3848 105.462 25.8569 107.554 28.7111 107.549C30.6486 107.546 32.0332 107.054 32.865 106.074C33.6968 105.114 34.1422 103.509 34.2011 101.259ZM42.3003 124.403L42.3307 143.559L33.4557 143.573L33.4403 133.886L25.7528 133.898L25.7661 142.304L17.1099 142.318L17.0966 133.911L9.50284 133.923L9.51829 143.673L0.612055 143.688L0.581597 124.469L42.3003 124.403Z" fill="#D1B99E"/>
</svg>
